<svg width="30" height="36" viewBox="0 0 30 36" fill="none" xmlns="http://www.w3.org/2000/svg">
<path d="M15.072 0.535997V30.536C15.072 31.432 15.168 32.136 15.36 32.648C15.584 33.128 15.92 33.48 16.368 33.704C16.848 33.896 17.472 33.992 18.24 33.992V35C17.536 34.968 16.496 34.936 15.12 34.904C13.776 34.84 12.4 34.808 10.992 34.808C9.232 34.808 7.488 34.84 5.76 34.904C4.032 34.936 2.72 34.968 1.824 35V33.992C2.944 33.992 3.84 33.848 4.512 33.56C5.184 33.272 5.664 32.776 5.952 32.072C6.272 31.368 6.432 30.376 6.432 29.096V8.216C6.432 7.096 6.272 6.28 5.952 5.768C5.664 5.224 5.152 4.872 4.416 4.712C3.68 4.552 2.656 4.472 1.344 4.472V3.464C4.864 3.08 7.68 2.632 9.792 2.12C11.936 1.576 13.696 1.048 15.072 0.535997Z" fill="#10b981"/>
</svg>
