<svg width="30" height="36" viewBox="0 0 30 36" fill="none" xmlns="http://www.w3.org/2000/svg">
<path d="M12.864 0.343997C15.04 0.343997 16.992 0.679997 18.72 1.352C20.448 1.992 21.808 2.952 22.8 4.232C23.792 5.48 24.288 7.048 24.288 8.936C24.288 10.632 23.856 12.216 22.992 13.688C22.16 15.16 20.992 16.632 19.488 18.104C18.016 19.576 16.32 21.128 14.4 22.76C12.512 24.392 10.512 26.232 8.4 28.28H20.736C21.472 28.28 22.128 28.104 22.704 27.752C23.312 27.368 23.68 26.696 23.808 25.736H24.912C24.88 26.088 24.848 26.52 24.816 27.032C24.784 27.544 24.768 28.024 24.768 28.472C24.768 29.208 24.784 30.184 24.816 31.4C24.88 32.584 24.976 33.784 25.104 35H9.984C7.872 35 6.16 34.984 4.848 34.952C3.536 34.92 2.256 34.936 1.008 35V34.04C2.608 32.792 4.128 31.464 5.568 30.056C7.008 28.648 8.32 27.16 9.504 25.592C10.72 24.024 11.76 22.392 12.624 20.696C13.488 18.968 14.144 17.176 14.592 15.32C15.072 13.464 15.312 11.528 15.312 9.512C15.312 7.272 15.04 5.592 14.496 4.472C13.984 3.32 13.328 2.536 12.528 2.12C11.76 1.704 10.976 1.496 10.176 1.496C9.568 1.496 8.992 1.576 8.448 1.736C7.904 1.896 7.472 2.12 7.152 2.408C8.304 2.728 9.136 3.32 9.648 4.184C10.192 5.016 10.464 5.896 10.464 6.824C10.464 8.168 10 9.192 9.072 9.896C8.176 10.6 7.152 10.952 6 10.952C4.72 10.952 3.712 10.552 2.976 9.752C2.272 8.952 1.92 8.008 1.92 6.92C1.92 5.832 2.24 4.92 2.88 4.184C3.52 3.416 4.192 2.808 4.896 2.36C5.824 1.784 6.944 1.304 8.256 0.919998C9.568 0.535997 11.104 0.343997 12.864 0.343997Z" fill="#10b981"/>
</svg>
