<svg width="30" height="36" viewBox="0 0 30 36" fill="none" xmlns="http://www.w3.org/2000/svg">
<path d="M13.2 0.343997C16.496 0.343997 19.152 0.951998 21.168 2.168C23.216 3.352 24.24 5.032 24.24 7.208C24.24 8.68 23.744 10.024 22.752 11.24C21.792 12.424 20.432 13.448 18.672 14.312C16.944 15.144 14.944 15.8 12.672 16.28C15.168 16.376 17.424 16.792 19.44 17.528C21.456 18.264 23.056 19.32 24.24 20.696C25.456 22.04 26.064 23.672 26.064 25.592C26.064 27.192 25.648 28.616 24.816 29.864C23.984 31.112 22.848 32.168 21.408 33.032C20 33.896 18.4 34.552 16.608 35C14.848 35.448 13.024 35.672 11.136 35.672C9.664 35.672 8.32 35.544 7.104 35.288C5.888 35.064 4.816 34.696 3.888 34.184C2.992 33.64 2.352 33.032 1.968 32.36C1.584 31.688 1.392 31 1.392 30.296C1.392 29.176 1.776 28.248 2.544 27.512C3.312 26.744 4.4 26.36 5.808 26.36C7.152 26.36 8.256 26.712 9.12 27.416C9.984 28.12 10.416 29.064 10.416 30.248C10.416 31.304 10.064 32.184 9.36 32.888C8.688 33.56 7.888 34.024 6.96 34.28C7.216 34.344 7.552 34.424 7.968 34.52C8.384 34.584 8.928 34.616 9.6 34.616C11.264 34.616 12.656 34.216 13.776 33.416C14.896 32.584 15.744 31.464 16.32 30.056C16.896 28.648 17.184 27.048 17.184 25.256C17.184 22.92 16.72 20.984 15.792 19.448C14.896 17.88 13.616 17.016 11.952 16.856C11.632 17.112 11.296 17.352 10.944 17.576C10.624 17.768 10.256 17.864 9.84 17.864C9.616 17.864 9.392 17.816 9.168 17.72C8.976 17.624 8.88 17.432 8.88 17.144C8.88 16.792 9.024 16.552 9.312 16.424C9.632 16.296 10.032 16.232 10.512 16.232C10.672 16.232 10.816 16.248 10.944 16.28C11.104 16.28 11.264 16.28 11.424 16.28C12.736 15.288 13.696 14.168 14.304 12.92C14.944 11.64 15.264 10.056 15.264 8.168C15.264 5.928 14.832 4.232 13.968 3.08C13.136 1.896 12.048 1.304 10.704 1.304C10.192 1.304 9.68 1.352 9.168 1.448C8.688 1.512 8.272 1.672 7.92 1.928C9.04 2.344 9.872 2.968 10.416 3.8C10.96 4.6 11.232 5.448 11.232 6.344C11.232 7.656 10.768 8.68 9.84 9.416C8.944 10.12 7.92 10.472 6.768 10.472C5.488 10.472 4.48 10.072 3.744 9.272C3.04 8.472 2.688 7.496 2.688 6.344C2.688 5.256 2.976 4.36 3.552 3.656C4.128 2.92 4.832 2.328 5.664 1.88C6.496 1.432 7.552 1.064 8.832 0.775997C10.112 0.487997 11.568 0.343997 13.2 0.343997Z" fill="#10b981"/>
</svg>
