<svg width="30" height="36" viewBox="0 0 30 36" fill="none" xmlns="http://www.w3.org/2000/svg">
<path d="M20.208 0.343997L20.112 1.88L1.152 27.56L3.888 22.904H25.584V28.52H0.096V27.512L20.208 0.343997ZM20.976 0.343997V29.912C20.976 31.064 21.04 31.928 21.168 32.504C21.328 33.08 21.616 33.464 22.032 33.656C22.448 33.848 23.072 33.976 23.904 34.04V35C23.104 34.936 22.016 34.904 20.64 34.904C19.296 34.872 17.856 34.856 16.32 34.856C15.136 34.856 13.968 34.872 12.816 34.904C11.664 34.904 10.688 34.936 9.888 35V34.04C10.976 33.976 11.792 33.848 12.336 33.656C12.912 33.464 13.296 33.08 13.488 32.504C13.68 31.928 13.776 31.064 13.776 29.912V9.944L20.208 0.343997H20.976Z" fill="#10b981"/>
</svg>
