<svg width="64" height="64" viewBox="0 0 64 64" fill="none" xmlns="http://www.w3.org/2000/svg">
<path d="M54.6275 9.3725C48.5834 3.32863 40.5475 0 32 0C23.4525 0 15.4166 3.32863 9.3725 9.3725C3.32863 15.4166 0 23.4525 0 32C0 40.5475 3.32863 48.5834 9.3725 54.6275C15.4166 60.6714 23.4525 64 32 64C40.5475 64 48.5834 60.6714 54.6275 54.6275C60.6714 48.5834 64 40.5475 64 32C64 23.4525 60.6714 15.4166 54.6275 9.3725ZM32 62.125C15.389 62.125 1.875 48.611 1.875 32C1.875 15.389 15.389 1.875 32 1.875C48.611 1.875 62.125 15.389 62.125 32C62.125 48.611 48.611 62.125 32 62.125Z" fill="white"/>
<path d="M48.5294 27.9398C48.4502 27.8939 48.3701 27.8477 48.2905 27.8017L27.2531 15.6547C25.8048 14.8204 24.0075 14.8202 22.5631 15.654C21.118 16.4883 20.2201 18.0448 20.2199 19.7163H20.2289C20.2198 19.8497 20.2198 19.9978 20.2198 20.1635L20.2189 30.1252C20.2189 30.643 20.6385 31.0627 21.1564 31.0627C21.6743 31.0627 22.0939 30.6429 22.0939 30.1252C22.0939 30.0229 22.0943 19.9272 22.0949 19.7228V19.7164C22.095 18.7127 22.6336 17.7783 23.5006 17.2778C24.3674 16.7774 25.4466 16.7779 26.3165 17.2789C26.5267 17.4003 47.3104 29.3998 47.5855 29.5598C47.5875 29.5609 47.5895 29.5622 47.5915 29.5633C48.4607 30.0654 49.0006 30.9992 49.0006 32.0002C49.0006 33.0012 48.4607 33.9349 47.5917 34.4369L26.3156 46.7207C25.4463 47.2224 24.3678 47.223 23.5008 46.7225C22.634 46.2222 22.0949 45.2872 22.0939 44.2833V33.8752C22.0939 33.3574 21.6741 32.9377 21.1564 32.9377C20.6386 32.9377 20.2189 33.3574 20.2189 33.8752L20.2188 44.2843C20.2205 45.9559 21.1188 47.5124 22.5631 48.3463C23.2851 48.7632 24.095 48.9715 24.9053 48.9715C25.7168 48.9715 26.5285 48.7625 27.2529 48.3444L48.5294 36.0605C49.9766 35.2245 50.8756 33.6688 50.8756 32.0002C50.8756 30.3315 49.9766 28.7758 48.5294 27.9398Z" fill="white"/>
</svg>
