<svg width="28" height="29" viewBox="0 0 28 29" fill="none" xmlns="http://www.w3.org/2000/svg">
<path fill-rule="evenodd" clip-rule="evenodd" d="M15.3375 13.0625H25.2625C25.8907 13.0625 26.4 13.5718 26.4 14.2C26.4 14.8282 25.8907 15.3375 25.2625 15.3375H15.3375V25.2625C15.3375 25.8907 14.8282 26.4 14.2 26.4C13.5718 26.4 13.0625 25.8907 13.0625 25.2625V15.3375H3.1375C2.50926 15.3375 2 14.8282 2 14.2C2 13.5718 2.50926 13.0625 3.1375 13.0625H13.0625V3.1375C13.0625 2.50926 13.5718 2 14.2 2C14.8282 2 15.3375 2.50926 15.3375 3.1375V13.0625Z" fill="#1D9A84"/>
</svg>
